<?xml version="1.0" encoding="UTF-8" standalone="no"?>
<!-- Created with Inkscape (http://www.inkscape.org/) -->

<svg
   width="32.023239mm"
   height="36.524967mm"
   viewBox="0 0 32.023239 36.524967"
   version="1.1"
   id="svg1820"
   inkscape:version="1.3.2 (1:1.3.2+202311252150+091e20ef0f)"
   sodipodi:docname="public-paper-alternative.svg"
   xml:space="preserve"
   inkscape:export-filename="ssc/set-predicates-power-object.svg"
   inkscape:export-xdpi="96"
   inkscape:export-ydpi="96"
   xmlns:inkscape="http://www.inkscape.org/namespaces/inkscape"
   xmlns:sodipodi="http://sodipodi.sourceforge.net/DTD/sodipodi-0.dtd"
   xmlns="http://www.w3.org/2000/svg"
   xmlns:svg="http://www.w3.org/2000/svg"><sodipodi:namedview
     id="namedview1822"
     pagecolor="#ffffff"
     bordercolor="#666666"
     borderopacity="1.0"
     inkscape:showpageshadow="2"
     inkscape:pageopacity="0.0"
     inkscape:pagecheckerboard="0"
     inkscape:deskcolor="#d1d1d1"
     inkscape:document-units="mm"
     showgrid="true"
     inkscape:zoom="1.3061078"
     inkscape:cx="4444.503"
     inkscape:cy="2997.0727"
     inkscape:window-width="1368"
     inkscape:window-height="2496"
     inkscape:window-x="72"
     inkscape:window-y="27"
     inkscape:window-maximized="1"
     inkscape:current-layer="layer1"
     showguides="true"><inkscape:grid
       type="axonomgrid"
       id="grid18583"
       visible="true"
       originx="-1229.75"
       originy="-813.50004"
       enabled="false"
       spacingy="1"
       gridanglex="30"
       gridanglez="30"
       units="mm" /><inkscape:grid
       type="xygrid"
       id="grid313765"
       enabled="true"
       units="mm"
       spacingx="1"
       spacingy="1"
       originx="-1229.75"
       originy="-813.50004"
       dotted="false"
       visible="true" /></sodipodi:namedview><defs
     id="defs1817"><marker
       style="overflow:visible"
       id="ArrowWide"
       refX="0"
       refY="0"
       orient="auto-start-reverse"
       inkscape:stockid="Wide arrow"
       markerWidth="1"
       markerHeight="1"
       viewBox="0 0 1 1"
       inkscape:isstock="true"
       inkscape:collect="always"
       preserveAspectRatio="xMidYMid"><path
         style="fill:none;stroke:context-stroke;stroke-width:1;stroke-linecap:butt"
         d="M 3,-3 0,0 3,3"
         transform="rotate(180,0.125,0)"
         sodipodi:nodetypes="ccc"
         id="path244" /></marker><marker
       style="overflow:visible"
       id="ArrowWide_Fnone_S-3584e4"
       refX="0"
       refY="0"
       orient="auto-start-reverse"
       inkscape:stockid="Wide arrow"
       markerWidth="1"
       markerHeight="1"
       viewBox="0 0 1 1"
       inkscape:isstock="true"
       inkscape:collect="always"
       preserveAspectRatio="xMidYMid"><path
         style="fill:none;stroke:#3584e4;stroke-width:1;stroke-linecap:butt"
         d="M 3,-3 0,0 3,3"
         transform="rotate(180,0.125,0)"
         sodipodi:nodetypes="ccc"
         id="path1" /></marker><marker
       style="overflow:visible"
       id="marker153_Fnone_S-000000"
       refX="0"
       refY="0"
       orient="auto-start-reverse"
       inkscape:stockid="Wide arrow"
       markerWidth="1"
       markerHeight="1"
       viewBox="0 0 1 1"
       inkscape:isstock="true"
       inkscape:collect="always"
       preserveAspectRatio="xMidYMid"><path
         style="fill:none;stroke:#000000;stroke-width:1;stroke-linecap:butt"
         d="M 3,-3 0,0 3,3"
         transform="rotate(180,0.125,0)"
         sodipodi:nodetypes="ccc"
         id="path53" /></marker></defs><g
     inkscape:label="Layer 1"
     inkscape:groupmode="layer"
     id="layer1"
     transform="translate(-1229.75,-813.50004)"><rect
       style="font-variation-settings:normal;opacity:1;fill:none;fill-opacity:1;fill-rule:evenodd;stroke:#e6e6e6;stroke-width:0.5;stroke-linecap:butt;stroke-linejoin:miter;stroke-miterlimit:4;stroke-dasharray:none;stroke-dashoffset:0;stroke-opacity:1;stop-color:#000000;stop-opacity:1"
       id="rect1481"
       width="208"
       height="48"
       x="12"
       y="7" /><text
       xml:space="preserve"
       style="font-style:normal;font-variant:normal;font-weight:normal;font-stretch:normal;font-size:4px;line-height:4.99999px;font-family:'Liberation Sans', sans-serif;-inkscape-font-specification:'Liberation Sans, sans-serif';text-decoration-color:#000000;white-space:pre;shape-inside:url(#rect1481);display:inline;fill:#000000;stroke-width:3.77952;stop-color:#000000"
       x="30.093462"
       y="39.661663"
       id="text1498"><tspan
         x="12"
         y="10.61273"
         id="tspan2">Prefer to rich text in this document, in <tspan
   style="font-style:italic"
   id="tspan1">increasing</tspan> order of preference:
</tspan><tspan
         x="12"
         y="15.612719"
         id="tspan3">1. private-observations.md
</tspan><tspan
         x="12"
         y="20.61271"
         id="tspan4">2. observations.md
</tspan><tspan
         x="12"
         y="25.6127"
         id="tspan6">3. Some more specific document (e.g. refactor-code.md)</tspan></text><circle
       style="fill:#000000;stroke:#ffffff;stroke-width:0.999998;-inkscape-stroke:none;paint-order:stroke fill markers"
       id="circle94"
       cx="1255"
       cy="815"
       r="1" /><circle
       style="fill:#000000;stroke:#ffffff;stroke-width:0.999998;-inkscape-stroke:none;paint-order:stroke fill markers"
       id="circle95"
       cx="1235"
       cy="815"
       r="1" /><path
       d="m 1254.9998,843.9998 a 1,1 0 0 0 -0.9999,1.0004 1,1 0 0 0 0.9999,1 1,1 0 0 0 0.9999,-1 1,1 0 0 0 -0.9999,-1.0004 z"
       style="stroke:#ffffff;stroke-width:0.999998;paint-order:stroke fill markers"
       id="path107" /><circle
       style="fill:#000000;stroke:#ffffff;stroke-width:0.999998;-inkscape-stroke:none;paint-order:stroke fill markers"
       id="circle107"
       cx="1235"
       cy="845"
       r="1" /><path
       style="font-variation-settings:normal;opacity:1;vector-effect:none;fill:none;fill-opacity:1;stroke:#000000;stroke-width:0.499999;stroke-linecap:butt;stroke-linejoin:miter;stroke-miterlimit:4;stroke-dasharray:none;stroke-dashoffset:0;stroke-opacity:1;-inkscape-stroke:none;marker-end:url(#marker153_Fnone_S-000000);stop-color:#000000;stop-opacity:1"
       d="m 1237.5,844.99997 h 15"
       id="path123"
       sodipodi:nodetypes="cc" /></g><g
     inkscape:label=""
     transform="translate(7.380014,2.748962)"
     id="g203"><g
   id="g202"
   transform="matrix(0.352778,0,0,0.352778,-0.785768,-0.665207)">
    <g
   style="fill:#000000;fill-opacity:1"
   id="g197">
      <g
   id="g196"
   transform="translate(1.993,8.1199999)">
        <path
   style="stroke:none"
   d="m 2.046875,-3.984375 h 0.9375 c 0.203125,0 0.3125,0 0.3125,-0.203125 0,-0.109375 -0.109375,-0.109375 -0.28125,-0.109375 h -0.875 C 2.5,-5.71875 2.546875,-5.90625 2.546875,-5.96875 c 0,-0.171875 -0.125,-0.265625 -0.296875,-0.265625 -0.03125,0 -0.3125,0 -0.390625,0.359375 L 1.46875,-4.296875 h -0.9375 c -0.203125,0 -0.296875,0 -0.296875,0.1875 0,0.125 0.078125,0.125 0.28125,0.125 h 0.875 C 0.671875,-1.15625 0.625,-0.984375 0.625,-0.8125 0.625,-0.265625 1,0.109375 1.546875,0.109375 2.5625,0.109375 3.125,-1.34375 3.125,-1.421875 3.125,-1.53125 3.046875,-1.53125 3.015625,-1.53125 2.921875,-1.53125 2.90625,-1.5 2.859375,-1.390625 2.4375,-0.34375 1.90625,-0.109375 1.5625,-0.109375 c -0.203125,0 -0.3125,-0.125 -0.3125,-0.453125 0,-0.25 0.03125,-0.3125 0.0625,-0.484375 z m 0,0"
   id="path195" />
      </g>
    </g>
    <g
   style="fill:#000000;fill-opacity:1"
   id="g199">
      <g
   id="g198"
   transform="translate(5.5900002,9.6140003)">
        <path
   style="stroke:none"
   d="M 3.59375,-2.21875 C 3.59375,-2.984375 3.5,-3.546875 3.1875,-4.03125 2.96875,-4.34375 2.53125,-4.625 1.984375,-4.625 c -1.625,0 -1.625,1.90625 -1.625,2.40625 0,0.5 0,2.359375 1.625,2.359375 1.609375,0 1.609375,-1.859375 1.609375,-2.359375 z M 1.984375,-0.0625 c -0.328125,0 -0.75,-0.1875 -0.890625,-0.75 C 1,-1.21875 1,-1.796875 1,-2.3125 1,-2.828125 1,-3.359375 1.09375,-3.734375 1.25,-4.28125 1.6875,-4.4375 1.984375,-4.4375 c 0.375,0 0.734375,0.234375 0.859375,0.640625 0.109375,0.375 0.125,0.875 0.125,1.484375 0,0.515625 0,1.03125 -0.09375,1.46875 -0.140625,0.640625 -0.609375,0.78125 -0.890625,0.78125 z m 0,0"
   id="path197" />
      </g>
    </g>
    <g
   style="fill:#000000;fill-opacity:1"
   id="g201">
      <g
   id="g200"
   transform="translate(9.5609999,9.6140003)">
        <path
   style="stroke:none"
   d="m 1.4375,-0.84375 c -0.25,0.390625 -0.46875,0.5625 -0.875,0.59375 -0.078125,0 -0.171875,0 -0.171875,0.140625 C 0.390625,-0.03125 0.453125,0 0.5,0 0.671875,0 0.90625,-0.03125 1.09375,-0.03125 1.3125,-0.03125 1.609375,0 1.8125,0 1.84375,0 1.953125,0 1.953125,-0.15625 1.953125,-0.25 1.859375,-0.25 1.828125,-0.25 1.78125,-0.265625 1.53125,-0.265625 1.53125,-0.453125 c 0,-0.09375 0.0625,-0.203125 0.09375,-0.265625 l 0.5625,-0.875 h 2 L 4.34375,-0.4375 C 4.328125,-0.359375 4.28125,-0.25 3.875,-0.25 c -0.09375,0 -0.1875,0 -0.1875,0.15625 C 3.6875,-0.0625 3.703125,0 3.796875,0 4,0 4.5,-0.03125 4.703125,-0.03125 c 0.125,0 0.28125,0.015625 0.40625,0.015625 C 5.234375,-0.015625 5.375,0 5.5,0 5.59375,0 5.640625,-0.0625 5.640625,-0.140625 5.640625,-0.25 5.5625,-0.25 5.453125,-0.25 c -0.40625,0 -0.421875,-0.0625 -0.4375,-0.21875 l -0.625,-4.3125 C 4.375,-4.921875 4.359375,-4.96875 4.234375,-4.96875 4.09375,-4.96875 4.0625,-4.90625 4,-4.8125 Z m 0.921875,-1 L 3.8125,-4.125 4.140625,-1.84375 Z m 0,0"
   id="path199" />
      </g>
    </g>
  </g>
</g><g
     inkscape:label=""
     transform="translate(26.380014,33.748962)"
     id="g228"><g
   id="g227"
   transform="matrix(0.352778,0,0,0.352778,-0.785768,-0.665207)">
    <g
   style="fill:#000000;fill-opacity:1"
   id="g224">
      <g
   id="g223"
   transform="translate(1.993,8.1199999)">
        <path
   style="stroke:none"
   d="m 2.046875,-3.984375 h 0.9375 c 0.203125,0 0.3125,0 0.3125,-0.203125 0,-0.109375 -0.109375,-0.109375 -0.28125,-0.109375 h -0.875 C 2.5,-5.71875 2.546875,-5.90625 2.546875,-5.96875 c 0,-0.171875 -0.125,-0.265625 -0.296875,-0.265625 -0.03125,0 -0.3125,0 -0.390625,0.359375 L 1.46875,-4.296875 h -0.9375 c -0.203125,0 -0.296875,0 -0.296875,0.1875 0,0.125 0.078125,0.125 0.28125,0.125 h 0.875 C 0.671875,-1.15625 0.625,-0.984375 0.625,-0.8125 0.625,-0.265625 1,0.109375 1.546875,0.109375 2.5625,0.109375 3.125,-1.34375 3.125,-1.421875 3.125,-1.53125 3.046875,-1.53125 3.015625,-1.53125 2.921875,-1.53125 2.90625,-1.5 2.859375,-1.390625 2.4375,-0.34375 1.90625,-0.109375 1.5625,-0.109375 c -0.203125,0 -0.3125,-0.125 -0.3125,-0.453125 0,-0.25 0.03125,-0.3125 0.0625,-0.484375 z m 0,0"
   id="path223" />
      </g>
    </g>
    <g
   style="fill:#000000;fill-opacity:1"
   id="g226">
      <g
   id="g225"
   transform="translate(5.5900002,9.6140003)">
        <path
   style="stroke:none"
   d="m 2.328125,-4.4375 c 0,-0.1875 0,-0.1875 -0.203125,-0.1875 -0.453125,0.4375 -1.078125,0.4375 -1.359375,0.4375 v 0.25 c 0.15625,0 0.625,0 1,-0.1875 v 3.546875 c 0,0.234375 0,0.328125 -0.6875,0.328125 H 0.8125 V 0 c 0.125,0 0.984375,-0.03125 1.234375,-0.03125 0.21875,0 1.09375,0.03125 1.25,0.03125 V -0.25 H 3.03125 c -0.703125,0 -0.703125,-0.09375 -0.703125,-0.328125 z m 0,0"
   id="path224" />
      </g>
    </g>
  </g>
</g><g
     inkscape:label=""
     transform="translate(6.380014,33.748962)"
     id="g239"><g
   id="g238"
   transform="matrix(0.352778,0,0,0.352778,-0.785768,-0.665207)">
    <g
   style="fill:#000000;fill-opacity:1"
   id="g230">
      <g
   id="g229"
   transform="translate(1.993,8.1199999)">
        <path
   style="stroke:none"
   d="m 2.046875,-3.984375 h 0.9375 c 0.203125,0 0.3125,0 0.3125,-0.203125 0,-0.109375 -0.109375,-0.109375 -0.28125,-0.109375 h -0.875 C 2.5,-5.71875 2.546875,-5.90625 2.546875,-5.96875 c 0,-0.171875 -0.125,-0.265625 -0.296875,-0.265625 -0.03125,0 -0.3125,0 -0.390625,0.359375 L 1.46875,-4.296875 h -0.9375 c -0.203125,0 -0.296875,0 -0.296875,0.1875 0,0.125 0.078125,0.125 0.28125,0.125 h 0.875 C 0.671875,-1.15625 0.625,-0.984375 0.625,-0.8125 0.625,-0.265625 1,0.109375 1.546875,0.109375 2.5625,0.109375 3.125,-1.34375 3.125,-1.421875 3.125,-1.53125 3.046875,-1.53125 3.015625,-1.53125 2.921875,-1.53125 2.90625,-1.5 2.859375,-1.390625 2.4375,-0.34375 1.90625,-0.109375 1.5625,-0.109375 c -0.203125,0 -0.3125,-0.125 -0.3125,-0.453125 0,-0.25 0.03125,-0.3125 0.0625,-0.484375 z m 0,0"
   id="path229" />
      </g>
    </g>
    <g
   style="fill:#000000;fill-opacity:1"
   id="g237">
      <g
   id="g236"
   transform="translate(5.5900002,9.6140003)">
        <path
   style="stroke:none"
   d="M 3.59375,-2.21875 C 3.59375,-2.984375 3.5,-3.546875 3.1875,-4.03125 2.96875,-4.34375 2.53125,-4.625 1.984375,-4.625 c -1.625,0 -1.625,1.90625 -1.625,2.40625 0,0.5 0,2.359375 1.625,2.359375 1.609375,0 1.609375,-1.859375 1.609375,-2.359375 z M 1.984375,-0.0625 c -0.328125,0 -0.75,-0.1875 -0.890625,-0.75 C 1,-1.21875 1,-1.796875 1,-2.3125 1,-2.828125 1,-3.359375 1.09375,-3.734375 1.25,-4.28125 1.6875,-4.4375 1.984375,-4.4375 c 0.375,0 0.734375,0.234375 0.859375,0.640625 0.109375,0.375 0.125,0.875 0.125,1.484375 0,0.515625 0,1.03125 -0.09375,1.46875 -0.140625,0.640625 -0.609375,0.78125 -0.890625,0.78125 z m 0,0"
   id="path236" />
      </g>
    </g>
  </g>
</g><g
     inkscape:label=""
     transform="translate(27.380014,2.748962)"
     id="g261"><g
   id="g260"
   transform="matrix(0.352778,0,0,0.352778,-0.785768,-0.665207)">
    <g
   style="fill:#000000;fill-opacity:1"
   id="g247">
      <g
   id="g246"
   transform="translate(1.993,8.1199999)">
        <path
   style="stroke:none"
   d="m 2.046875,-3.984375 h 0.9375 c 0.203125,0 0.3125,0 0.3125,-0.203125 0,-0.109375 -0.109375,-0.109375 -0.28125,-0.109375 h -0.875 C 2.5,-5.71875 2.546875,-5.90625 2.546875,-5.96875 c 0,-0.171875 -0.125,-0.265625 -0.296875,-0.265625 -0.03125,0 -0.3125,0 -0.390625,0.359375 L 1.46875,-4.296875 h -0.9375 c -0.203125,0 -0.296875,0 -0.296875,0.1875 0,0.125 0.078125,0.125 0.28125,0.125 h 0.875 C 0.671875,-1.15625 0.625,-0.984375 0.625,-0.8125 0.625,-0.265625 1,0.109375 1.546875,0.109375 2.5625,0.109375 3.125,-1.34375 3.125,-1.421875 3.125,-1.53125 3.046875,-1.53125 3.015625,-1.53125 2.921875,-1.53125 2.90625,-1.5 2.859375,-1.390625 2.4375,-0.34375 1.90625,-0.109375 1.5625,-0.109375 c -0.203125,0 -0.3125,-0.125 -0.3125,-0.453125 0,-0.25 0.03125,-0.3125 0.0625,-0.484375 z m 0,0"
   id="path246" />
      </g>
    </g>
    <g
   style="fill:#000000;fill-opacity:1"
   id="g250">
      <g
   id="g249"
   transform="translate(5.5900002,9.6140003)">
        <path
   style="stroke:none"
   d="m 2.328125,-4.4375 c 0,-0.1875 0,-0.1875 -0.203125,-0.1875 -0.453125,0.4375 -1.078125,0.4375 -1.359375,0.4375 v 0.25 c 0.15625,0 0.625,0 1,-0.1875 v 3.546875 c 0,0.234375 0,0.328125 -0.6875,0.328125 H 0.8125 V 0 c 0.125,0 0.984375,-0.03125 1.234375,-0.03125 0.21875,0 1.09375,0.03125 1.25,0.03125 V -0.25 H 3.03125 c -0.703125,0 -0.703125,-0.09375 -0.703125,-0.328125 z m 0,0"
   id="path249" />
      </g>
    </g>
    <g
   style="fill:#000000;fill-opacity:1"
   id="g259">
      <g
   id="g258"
   transform="translate(9.5609999,9.6140003)">
        <path
   style="stroke:none"
   d="M 1.328125,-0.546875 C 1.265625,-0.3125 1.25,-0.25 0.703125,-0.25 0.59375,-0.25 0.5,-0.25 0.5,-0.109375 0.5,0 0.578125,0 0.703125,0 H 3.40625 c 1.171875,0 2.078125,-0.796875 2.078125,-1.484375 0,-0.5 -0.453125,-0.921875 -1.203125,-1 0.84375,-0.15625 1.546875,-0.6875 1.546875,-1.28125 0,-0.53125 -0.53125,-1 -1.4375,-1 h -2.53125 c -0.140625,0 -0.234375,0 -0.234375,0.15625 0,0.09375 0.09375,0.09375 0.234375,0.09375 0,0 0.140625,0 0.265625,0.015625 0.140625,0.015625 0.15625,0.03125 0.15625,0.109375 0,0 0,0.046875 -0.03125,0.140625 z m 1.109375,-2.03125 0.421875,-1.6875 c 0.0625,-0.21875 0.0625,-0.25 0.359375,-0.25 h 1.0625 c 0.703125,0 0.875,0.46875 0.875,0.734375 0,0.5625 -0.640625,1.203125 -1.578125,1.203125 z M 2.109375,-0.25 C 1.890625,-0.25 1.875,-0.265625 1.875,-0.328125 c 0,0 0,-0.03125 0.03125,-0.140625 L 2.390625,-2.375 H 3.875 c 0.640625,0 0.90625,0.4375 0.90625,0.828125 0,0.703125 -0.71875,1.296875 -1.5625,1.296875 z m 0,0"
   id="path258" />
      </g>
    </g>
  </g>
</g><path
     style="font-variation-settings:normal;opacity:1;vector-effect:none;fill:none;fill-opacity:1;stroke:#3584e4;stroke-width:0.499999;stroke-linecap:butt;stroke-linejoin:miter;stroke-miterlimit:4;stroke-dasharray:0.999998, 0.499999;stroke-dashoffset:0;stroke-opacity:1;-inkscape-stroke:none;marker-end:url(#ArrowWide_Fnone_S-3584e4);stop-color:#000000;stop-opacity:1"
     d="m 4.250014,29.999912 c -2,-3.00001 -3.99050002,-9.48612 -4.00000002,-14.49997 -0.01,-4.44804 0.82980002,-10.65259 3.50000002,-12.87695"
     id="path261"
     sodipodi:nodetypes="cac" /><path
     style="font-variation-settings:normal;opacity:1;vector-effect:none;fill:none;fill-opacity:1;stroke:#3584e4;stroke-width:0.499999;stroke-linecap:butt;stroke-linejoin:miter;stroke-miterlimit:4;stroke-dasharray:0.999998, 0.499999;stroke-dashoffset:0;stroke-opacity:1;-inkscape-stroke:none;marker-end:url(#ArrowWide_Fnone_S-3584e4);stop-color:#000000;stop-opacity:1"
     d="m 24.250014,29.999912 c -2,-3.00001 -3.9905,-9.48612 -4,-14.49997 -0.01,-4.44804 0.8298,-10.65259 3.5,-12.87695"
     id="path270"
     sodipodi:nodetypes="cac" /></svg>
